<svg xmlns="http://www.w3.org/2000/svg" viewBox="0 0 32 32" fill="none">
  <rect width="32" height="32" rx="7" fill="#2C43C9"/>
  <g stroke="#ffffff" stroke-width="1.8" stroke-linecap="round" stroke-linejoin="round" fill="none">
    <path d="M11 10H9.5a2 2 0 0 1 0-4H11"/>
    <path d="M21 10h1.5a2 2 0 0 0 0-4H21"/>
    <path d="M9 26h14"/>
    <path d="M14 18V20.2c0 .4-.3.8-.7 1-1 .5-1.8 1.6-1.8 2.8"/>
    <path d="M18 18V20.2c0 .4.3.8.7 1 1 .5 1.8 1.6 1.8 2.8"/>
    <path d="M21 6H11v7a5 5 0 0 0 10 0V6Z"/>
  </g>
</svg>
